<svg xmlns="http://www.w3.org/2000/svg" viewBox="0 0 391.04 136.17"><defs><style>.cls-1{fill:#fff;}</style></defs><g id="Layer_2" data-name="Layer 2"><g id="Layer_1-2" data-name="Layer 1"><path class="cls-1" d="M68.09,68.09v50.18h0A50.16,50.16,0,0,1,41.23,25.73V5.53A68.09,68.09,0,0,0,86,133.78V68.09Z"/><path class="cls-1" d="M68.09,0A68.26,68.26,0,0,0,50.18,2.39v65.7H68.09V17.91A50.16,50.16,0,0,1,95,110.44v20.21A68.09,68.09,0,0,0,68.09,0Z"/><path class="cls-1" d="M164.4,18a.43.43,0,0,1,.41-.41h.88a.43.43,0,0,1,.42.41V32.46a.43.43,0,0,1-.42.41h-.88a.43.43,0,0,1-.41-.41Z"/><path class="cls-1" d="M179.34,17.71a.41.41,0,0,1,.42-.39h.54l9.88,12.31h0V18a.41.41,0,0,1,.41-.41h.77a.43.43,0,0,1,.41.41V32.7a.4.4,0,0,1-.41.39H191L181,20.54h0V32.46a.42.42,0,0,1-.42.41h-.76a.43.43,0,0,1-.42-.41Z"/><path class="cls-1" d="M204.07,30.57l.33-.41c.22-.29.46-.46.77-.2a6,6,0,0,0,3.7,1.66c1.77,0,2.93-1.11,2.93-2.41,0-1.51-1.31-2.41-3.83-3.46s-3.85-2-3.85-4.53c0-1.49,1.18-3.9,4.66-3.9a7.16,7.16,0,0,1,3.75,1.12.49.49,0,0,1,.13.74c-.09.13-.18.29-.26.42a.5.5,0,0,1-.77.19,6.21,6.21,0,0,0-2.87-1c-2.32,0-3,1.49-3,2.41,0,1.46,1.11,2.32,2.95,3.09,3,1.2,4.87,2.32,4.87,4.86,0,2.28-2.17,3.94-4.73,3.94a7.19,7.19,0,0,1-4.63-1.77A.49.49,0,0,1,204.07,30.57Z"/><path class="cls-1" d="M227.66,19h-3.81a.41.41,0,0,1-.41-.42V18a.41.41,0,0,1,.41-.41h9.29a.42.42,0,0,1,.42.41v.64a.42.42,0,0,1-.42.42h-3.81V32.46a.43.43,0,0,1-.42.41h-.83a.43.43,0,0,1-.42-.41Z"/><path class="cls-1" d="M244.73,18a.43.43,0,0,1,.42-.41H246a.43.43,0,0,1,.42.41V32.46a.43.43,0,0,1-.42.41h-.87a.43.43,0,0,1-.42-.41Z"/><path class="cls-1" d="M261.84,19H258a.42.42,0,0,1-.42-.42V18a.42.42,0,0,1,.42-.41h9.29a.41.41,0,0,1,.41.41v.64a.41.41,0,0,1-.41.42H263.5V32.46a.43.43,0,0,1-.41.41h-.83a.43.43,0,0,1-.42-.41Z"/><path class="cls-1" d="M278.71,18a.43.43,0,0,1,.41-.41H280a.41.41,0,0,1,.41.41v9.14c0,2.5,1.56,4.45,4.12,4.45a4.08,4.08,0,0,0,4.16-4.41V18a.42.42,0,0,1,.42-.41h.83a.43.43,0,0,1,.42.41v9.27a5.81,5.81,0,1,1-11.61,0Z"/><path class="cls-1" d="M305.52,19h-3.81a.42.42,0,0,1-.42-.42V18a.42.42,0,0,1,.42-.41H311a.41.41,0,0,1,.41.41v.64A.41.41,0,0,1,311,19h-3.81V32.46a.43.43,0,0,1-.42.41h-.83a.43.43,0,0,1-.42-.41Z"/><path class="cls-1" d="M329.07,17.32a7.89,7.89,0,1,1-7.86,7.91A7.88,7.88,0,0,1,329.07,17.32Zm0,14.24a6.36,6.36,0,1,0-6.33-6.33A6.37,6.37,0,0,0,329.07,31.56Z"/><path class="cls-1" d="M177.33,51.71a14.84,14.84,0,0,1,9.36,3.61.67.67,0,0,1,.08,1l-3,3.22a.82.82,0,0,1-1,0,7.08,7.08,0,0,0-5-1.84,7.7,7.7,0,0,0,0,15.39,9.1,9.1,0,0,0,3.42-.61V70.33h-2.42a.7.7,0,0,1-.73-.69v-3.8a.71.71,0,0,1,.73-.73h7.71a.73.73,0,0,1,.7.73l0,10.33a.94.94,0,0,1-.3.61,19.4,19.4,0,0,1-9.52,2.5,13.79,13.79,0,0,1,0-27.57Z"/><path class="cls-1" d="M192.41,52.79a.76.76,0,0,1,.73-.73h4.61a.76.76,0,0,1,.73.73V78.2a.76.76,0,0,1-.73.73h-4.61a.76.76,0,0,1-.73-.73Z"/><path class="cls-1" d="M205.08,52.79a.73.73,0,0,1,.72-.73h4.57a.75.75,0,0,1,.73.73v20.5h9.14A.73.73,0,0,1,221,74V78.2a.73.73,0,0,1-.73.73H205.8a.73.73,0,0,1-.72-.73Z"/><path class="cls-1" d="M224.69,52.79a.73.73,0,0,1,.73-.73h8.94c4.53,0,8.25,3.11,8.25,7.14,0,3-2.64,5.1-4.45,6.06,2,.85,5.15,2.73,5.15,6.26,0,4.3-3.8,7.41-8.37,7.41h-9.52a.73.73,0,0,1-.73-.73Zm9,10.17a2.74,2.74,0,0,0,2.69-2.76,2.6,2.6,0,0,0-2.69-2.61h-3V63Zm.5,10.48a2.78,2.78,0,0,0,2.76-2.8c0-1.54-1.65-2.69-3.14-2.69h-3.11v5.49Z"/><path class="cls-1" d="M248.18,52.79a.73.73,0,0,1,.73-.73H264.8a.73.73,0,0,1,.73.73V57a.73.73,0,0,1-.73.73H254.17v4.76h8.75a.76.76,0,0,1,.73.73v4.19a.73.73,0,0,1-.73.73h-8.75v5.18H264.8a.73.73,0,0,1,.73.73V78.2a.73.73,0,0,1-.73.73H248.91a.73.73,0,0,1-.73-.73Z"/><path class="cls-1" d="M270.67,52.79a.73.73,0,0,1,.73-.73h11.48a8.34,8.34,0,0,1,8.36,8.29c0,3.53-2.34,6.37-5.68,7.72l5.26,9.75a.72.72,0,0,1-.65,1.11h-5.11a.7.7,0,0,1-.61-.35l-5.1-10.17H276.7V78.2a.76.76,0,0,1-.73.73H271.4a.73.73,0,0,1-.73-.73Zm11.71,10.75a3.08,3.08,0,0,0,2.92-3.07,2.94,2.94,0,0,0-2.92-2.92H276.7v6Z"/><path class="cls-1" d="M299.84,57.7h-5.49a.73.73,0,0,1-.73-.73V52.79a.73.73,0,0,1,.73-.73h17a.73.73,0,0,1,.72.73V57a.72.72,0,0,1-.72.73h-5.49V78.2a.76.76,0,0,1-.73.73h-4.61a.76.76,0,0,1-.73-.73Z"/><path class="cls-1" d="M327.63,51.68a13.82,13.82,0,1,1-13.78,13.85A13.79,13.79,0,0,1,327.63,51.68Zm0,21.49A7.68,7.68,0,1,0,320,65.53,7.69,7.69,0,0,0,327.63,73.17Z"/><path class="cls-1" d="M165.47,92.33a.71.71,0,0,1,.69-.73h9.36a13.44,13.44,0,1,1,0,26.87h-9.36a.72.72,0,0,1-.69-.73Zm9.67,20.46a7.78,7.78,0,0,0,0-15.55h-3.69v15.55Z"/><path class="cls-1" d="M193.68,92.33a.75.75,0,0,1,.73-.73H199a.75.75,0,0,1,.73.73v25.41a.75.75,0,0,1-.73.73h-4.6a.75.75,0,0,1-.73-.73Z"/><path class="cls-1" d="M209,91.83a.72.72,0,0,1,.69-.61h.62a.85.85,0,0,1,.65.38l8.9,16.58h.08l8.91-16.58a.83.83,0,0,1,.65-.38h.61a.72.72,0,0,1,.69.61l4.34,25.8a.7.7,0,0,1-.73.84h-4.53a.79.79,0,0,1-.73-.61L227.42,106h-.08l-6.45,12.44a.9.9,0,0,1-.65.42h-.69a.85.85,0,0,1-.66-.42L212.41,106h-.08l-1.69,11.87a.75.75,0,0,1-.73.61h-4.53a.71.71,0,0,1-.73-.84Z"/><path class="cls-1" d="M240,92.33a.73.73,0,0,1,.73-.73h15.89a.73.73,0,0,1,.73.73v4.18a.73.73,0,0,1-.73.73H246V102h8.75a.75.75,0,0,1,.73.73v4.18a.72.72,0,0,1-.73.73H246v5.19h10.63a.73.73,0,0,1,.73.73v4.18a.73.73,0,0,1-.73.73H240.77a.73.73,0,0,1-.73-.73Z"/><path class="cls-1" d="M262.49,91.91a.72.72,0,0,1,.73-.69h1L279.5,106h0V92.33a.72.72,0,0,1,.73-.73h4.6a.75.75,0,0,1,.73.73v25.83a.71.71,0,0,1-.73.69h-.61a1.09,1.09,0,0,1-.5-.19L268.6,103.42h0v14.32a.73.73,0,0,1-.73.73h-4.57a.76.76,0,0,1-.73-.73Z"/><path class="cls-1" d="M290.67,114.82l1.8-3.18a1,1,0,0,1,1.31-.23c.15.07,2.91,2.11,5.45,2.11a2.41,2.41,0,0,0,2.65-2.31c0-1.61-1.35-2.84-4-3.87-3.3-1.31-7.44-3.88-7.44-8.49,0-3.8,2.95-7.63,8.86-7.63a14.34,14.34,0,0,1,8.22,2.87,1,1,0,0,1,.23,1.23l-2,3c-.27.42-1,.77-1.31.5s-3.14-2.31-5.48-2.31a2.22,2.22,0,0,0-2.42,2c0,1.42,1.15,2.5,4.18,3.73s7.76,3.53,7.76,8.75c0,4-3.42,7.94-9.06,7.94-5,0-7.76-2.07-8.64-2.95C290.48,115.51,290.36,115.36,290.67,114.82Z"/><path class="cls-1" d="M316.69,97.24H311.2a.73.73,0,0,1-.73-.73V92.33a.73.73,0,0,1,.73-.73h17a.72.72,0,0,1,.73.73v4.18a.72.72,0,0,1-.73.73h-5.48v20.5a.76.76,0,0,1-.73.73h-4.61a.76.76,0,0,1-.73-.73Z"/><path class="cls-1" d="M332.81,92.33a.73.73,0,0,1,.73-.73h15.89a.73.73,0,0,1,.73.73v4.18a.73.73,0,0,1-.73.73H338.8V102h8.75a.76.76,0,0,1,.73.73v4.18a.73.73,0,0,1-.73.73H338.8v5.19h10.63a.73.73,0,0,1,.73.73v4.18a.73.73,0,0,1-.73.73H333.54a.73.73,0,0,1-.73-.73Z"/><path class="cls-1" d="M355.3,92.33a.75.75,0,0,1,.73-.73h4.61a.75.75,0,0,1,.73.73v25.41a.76.76,0,0,1-.73.73H356a.76.76,0,0,1-.73-.73Z"/><path class="cls-1" d="M367.93,91.91a.72.72,0,0,1,.73-.69h1L384.93,106h0V92.33a.73.73,0,0,1,.73-.73h4.61a.75.75,0,0,1,.73.73v25.83a.72.72,0,0,1-.73.69h-.62a1.05,1.05,0,0,1-.49-.19L374,103.42h0v14.32a.73.73,0,0,1-.73.73H368.7a.75.75,0,0,1-.73-.73Z"/></g></g></svg>