<svg xmlns="http://www.w3.org/2000/svg" viewBox="0 0 317.26 163.92"><defs><style>.cls-1{fill:#fff;}</style></defs><g id="Layer_2" data-name="Layer 2"><g id="Layer_1-2" data-name="Layer 1"><path class="cls-1" d="M256.55,60.72v44.75h0a44.73,44.73,0,0,1-24-82.52v-18A60.72,60.72,0,0,0,272.51,119.3V60.72Z"/><path class="cls-1" d="M256.55,0a60.52,60.52,0,0,0-16,2.14V60.72h16V16A44.73,44.73,0,0,1,280.5,98.49v18A60.72,60.72,0,0,0,256.55,0Z"/><path class="cls-1" d="M.85,63a.44.44,0,0,1,.42-.42h.88a.43.43,0,0,1,.41.42v14.5a.43.43,0,0,1-.41.42H1.27a.44.44,0,0,1-.42-.42Z"/><path class="cls-1" d="M15.79,62.78a.41.41,0,0,1,.42-.39h.55L26.64,74.7h0V63a.42.42,0,0,1,.42-.42h.76a.44.44,0,0,1,.42.42V77.76a.42.42,0,0,1-.42.4h-.39L17.41,65.61h0V77.52a.41.41,0,0,1-.41.42h-.77a.44.44,0,0,1-.42-.42Z"/><path class="cls-1" d="M40.53,75.64c.11-.13.22-.29.32-.42.22-.28.46-.46.77-.2a6,6,0,0,0,3.7,1.67c1.78,0,2.94-1.12,2.94-2.41,0-1.51-1.32-2.41-3.84-3.46s-3.85-2-3.85-4.53c0-1.49,1.18-3.9,4.66-3.9A7.2,7.2,0,0,1,49,63.5a.49.49,0,0,1,.13.75c-.08.13-.17.28-.26.41a.5.5,0,0,1-.77.2,6.07,6.07,0,0,0-2.87-1c-2.32,0-3,1.49-3,2.41,0,1.47,1.12,2.33,3,3.09,3,1.21,4.86,2.32,4.86,4.86,0,2.28-2.17,4-4.73,4a7.09,7.09,0,0,1-4.62-1.78A.47.47,0,0,1,40.53,75.64Z"/><path class="cls-1" d="M64.12,64.07H60.31a.41.41,0,0,1-.42-.41V63a.42.42,0,0,1,.42-.42H69.6A.41.41,0,0,1,70,63v.64a.41.41,0,0,1-.41.41H65.78V77.52a.43.43,0,0,1-.41.42h-.83a.44.44,0,0,1-.42-.42Z"/><path class="cls-1" d="M81.18,63a.44.44,0,0,1,.42-.42h.88a.43.43,0,0,1,.41.42v14.5a.43.43,0,0,1-.41.42H81.6a.44.44,0,0,1-.42-.42Z"/><path class="cls-1" d="M98.29,64.07H94.48a.41.41,0,0,1-.41-.41V63a.41.41,0,0,1,.41-.42h9.29a.42.42,0,0,1,.42.42v.64a.41.41,0,0,1-.42.41H100V77.52a.44.44,0,0,1-.42.42h-.83a.44.44,0,0,1-.42-.42Z"/><path class="cls-1" d="M115.16,63a.44.44,0,0,1,.42-.42h.83a.42.42,0,0,1,.42.42v9.14c0,2.49,1.55,4.44,4.11,4.44a4.08,4.08,0,0,0,4.17-4.4V63a.41.41,0,0,1,.41-.42h.83a.44.44,0,0,1,.42.42v9.27a5.81,5.81,0,1,1-11.61,0Z"/><path class="cls-1" d="M142,64.07h-3.81a.41.41,0,0,1-.41-.41V63a.41.41,0,0,1,.41-.42h9.29a.42.42,0,0,1,.42.42v.64a.41.41,0,0,1-.42.41h-3.81V77.52a.44.44,0,0,1-.42.42h-.83a.44.44,0,0,1-.42-.42Z"/><path class="cls-1" d="M165.52,62.39a7.89,7.89,0,1,1-7.86,7.9A7.86,7.86,0,0,1,165.52,62.39Zm0,14.23a6.35,6.35,0,1,0-6.33-6.33A6.36,6.36,0,0,0,165.52,76.62Z"/><path class="cls-1" d="M13.78,96.78a14.79,14.79,0,0,1,9.37,3.61.68.68,0,0,1,.07,1l-3,3.22a.8.8,0,0,1-1,0,7,7,0,0,0-5-1.84,7.7,7.7,0,0,0,0,15.39,8.87,8.87,0,0,0,3.41-.62V115.4H15.16a.7.7,0,0,1-.73-.69v-3.8a.7.7,0,0,1,.73-.73h7.72a.72.72,0,0,1,.69.73l0,10.32a1,1,0,0,1-.31.62,19.41,19.41,0,0,1-9.52,2.49,13.78,13.78,0,1,1,0-27.56Z"/><path class="cls-1" d="M28.86,97.86a.75.75,0,0,1,.73-.73H34.2a.75.75,0,0,1,.73.73v25.41a.76.76,0,0,1-.73.73H29.59a.76.76,0,0,1-.73-.73Z"/><path class="cls-1" d="M41.53,97.86a.73.73,0,0,1,.73-.73h4.57a.75.75,0,0,1,.73.73v20.49h9.13a.73.73,0,0,1,.73.73v4.19a.73.73,0,0,1-.73.73H42.26a.73.73,0,0,1-.73-.73Z"/><path class="cls-1" d="M61.14,97.86a.73.73,0,0,1,.73-.73h8.95c4.53,0,8.25,3.11,8.25,7.14,0,3-2.65,5.1-4.45,6.06,2,.85,5.14,2.73,5.14,6.26,0,4.3-3.8,7.41-8.37,7.41H61.87a.73.73,0,0,1-.73-.73Zm9,10.17a2.74,2.74,0,0,0,2.69-2.77,2.61,2.61,0,0,0-2.69-2.61h-3V108Zm.5,10.48a2.79,2.79,0,0,0,2.77-2.8c0-1.54-1.65-2.69-3.15-2.69H67.13v5.49Z"/><path class="cls-1" d="M84.63,97.86a.73.73,0,0,1,.73-.73h15.89a.72.72,0,0,1,.73.73V102a.73.73,0,0,1-.73.73H90.62v4.76h8.75a.75.75,0,0,1,.73.73v4.18a.73.73,0,0,1-.73.73H90.62v5.18h10.63a.73.73,0,0,1,.73.73v4.19a.73.73,0,0,1-.73.73H85.36a.73.73,0,0,1-.73-.73Z"/><path class="cls-1" d="M107.12,97.86a.73.73,0,0,1,.73-.73h11.48a8.34,8.34,0,0,1,8.37,8.29c0,3.53-2.34,6.37-5.68,7.71l5.26,9.75a.73.73,0,0,1-.66,1.12h-5.1a.68.68,0,0,1-.61-.35l-5.11-10.17h-2.65v9.79a.75.75,0,0,1-.73.73h-4.57a.73.73,0,0,1-.73-.73Zm11.71,10.74a3.07,3.07,0,0,0,2.92-3.07,2.93,2.93,0,0,0-2.92-2.91h-5.68v6Z"/><path class="cls-1" d="M136.3,102.77h-5.49a.73.73,0,0,1-.73-.73V97.86a.72.72,0,0,1,.73-.73h17a.73.73,0,0,1,.73.73V102a.73.73,0,0,1-.73.73h-5.49v20.5a.75.75,0,0,1-.73.73H137a.75.75,0,0,1-.72-.73Z"/><path class="cls-1" d="M164.08,96.74A13.82,13.82,0,1,1,150.3,110.6,13.79,13.79,0,0,1,164.08,96.74Zm0,21.5a7.68,7.68,0,1,0-7.63-7.64A7.69,7.69,0,0,0,164.08,118.24Z"/><path class="cls-1" d="M1.92,137.39a.72.72,0,0,1,.69-.72H12a13.44,13.44,0,1,1,0,26.87H2.61a.73.73,0,0,1-.69-.73Zm9.67,20.47a7.78,7.78,0,0,0,0-15.55H7.91v15.55Z"/><path class="cls-1" d="M30.13,137.39a.75.75,0,0,1,.73-.72h4.61a.75.75,0,0,1,.73.72v25.42a.76.76,0,0,1-.73.73H30.86a.76.76,0,0,1-.73-.73Z"/><path class="cls-1" d="M45.44,136.9a.74.74,0,0,1,.7-.62h.61a.85.85,0,0,1,.65.39l8.91,16.58h.08l8.9-16.58a.86.86,0,0,1,.65-.39h.62a.74.74,0,0,1,.69.62l4.34,25.79a.71.71,0,0,1-.73.85H66.33a.78.78,0,0,1-.73-.62l-1.73-11.86h-.08L57.34,163.5a.89.89,0,0,1-.65.42H56a.82.82,0,0,1-.65-.42l-6.49-12.44h-.08L47.1,162.92a.75.75,0,0,1-.73.62H41.84a.71.71,0,0,1-.73-.85Z"/><path class="cls-1" d="M76.5,137.39a.72.72,0,0,1,.72-.72h15.9a.73.73,0,0,1,.73.72v4.19a.73.73,0,0,1-.73.73H82.48v4.76h8.76a.75.75,0,0,1,.73.73V152a.73.73,0,0,1-.73.73H82.48v5.18H93.12a.73.73,0,0,1,.73.73v4.19a.73.73,0,0,1-.73.73H77.22a.73.73,0,0,1-.72-.73Z"/><path class="cls-1" d="M99,137a.72.72,0,0,1,.73-.69h1L116,151h0V137.39a.73.73,0,0,1,.73-.72h4.61a.75.75,0,0,1,.73.72v25.84a.73.73,0,0,1-.73.69h-.62a1.27,1.27,0,0,1-.5-.19l-15.16-15.24h0v14.32a.73.73,0,0,1-.73.73H99.72a.75.75,0,0,1-.73-.73Z"/><path class="cls-1" d="M127.12,159.89l1.81-3.19a1,1,0,0,1,1.3-.23c.16.08,2.92,2.11,5.45,2.11a2.4,2.4,0,0,0,2.65-2.3c0-1.61-1.34-2.84-4-3.88-3.31-1.3-7.45-3.87-7.45-8.48,0-3.8,3-7.64,8.87-7.64a14.29,14.29,0,0,1,8.21,2.88,1,1,0,0,1,.23,1.23l-2,3c-.26.43-1,.77-1.3.5s-3.15-2.3-5.49-2.3a2.23,2.23,0,0,0-2.42,2c0,1.42,1.15,2.49,4.19,3.72S145,150.75,145,156c0,4-3.42,7.95-9.06,7.95-5,0-7.75-2.07-8.64-3C126.93,160.58,126.81,160.43,127.12,159.89Z"/><path class="cls-1" d="M153.14,142.31h-5.48a.73.73,0,0,1-.73-.73v-4.19a.72.72,0,0,1,.73-.72h17a.73.73,0,0,1,.73.72v4.19a.73.73,0,0,1-.73.73h-5.49v20.5a.76.76,0,0,1-.73.73h-4.61a.76.76,0,0,1-.73-.73Z"/><path class="cls-1" d="M169.26,137.39a.73.73,0,0,1,.73-.72h15.9a.72.72,0,0,1,.72.72v4.19a.73.73,0,0,1-.72.73H175.25v4.76H184a.75.75,0,0,1,.73.73V152a.73.73,0,0,1-.73.73h-8.75v5.18h10.64a.73.73,0,0,1,.72.73v4.19a.73.73,0,0,1-.72.73H170a.73.73,0,0,1-.73-.73Z"/><path class="cls-1" d="M191.76,137.39a.75.75,0,0,1,.73-.72h4.6a.75.75,0,0,1,.73.72v25.42a.75.75,0,0,1-.73.73h-4.6a.75.75,0,0,1-.73-.73Z"/><path class="cls-1" d="M204.38,137a.73.73,0,0,1,.73-.69h1L221.39,151h0V137.39a.72.72,0,0,1,.73-.72h4.6a.75.75,0,0,1,.73.72v25.84a.72.72,0,0,1-.73.69h-.61a1.21,1.21,0,0,1-.5-.19l-15.16-15.24h0v14.32a.73.73,0,0,1-.73.73h-4.57a.76.76,0,0,1-.73-.73Z"/></g></g></svg>